<svg width="40" height="40" viewBox="0 0 40 40" fill="none" xmlns="http://www.w3.org/2000/svg">
<path fill-rule="evenodd" clip-rule="evenodd" d="M1.66699 4.72984C1.66699 3.91739 1.98974 3.13822 2.56422 2.56374C3.13871 1.98925 3.91788 1.66651 4.73033 1.66651H35.267C35.6696 1.66585 36.0684 1.74461 36.4406 1.89829C36.8127 2.05196 37.1509 2.27752 37.4357 2.56207C37.7206 2.84661 37.9465 3.18455 38.1006 3.55652C38.2547 3.9285 38.3339 4.32722 38.3337 4.72984V35.2665C38.3341 35.6692 38.2551 36.068 38.1013 36.4402C37.9474 36.8124 37.7217 37.1505 37.437 37.4354C37.1523 37.7202 36.8143 37.9461 36.4422 38.1002C36.0702 38.2542 35.6714 38.3334 35.2687 38.3332H4.73033C4.3279 38.3332 3.92942 38.2539 3.55765 38.0998C3.18588 37.9458 2.84811 37.72 2.56363 37.4354C2.27915 37.1507 2.05355 36.8128 1.8997 36.441C1.74585 36.0691 1.66677 35.6706 1.66699 35.2682V4.72984ZM16.1803 15.6465H21.1453V18.1398C21.862 16.7065 23.6953 15.4165 26.4503 15.4165C31.732 15.4165 32.9837 18.2715 32.9837 23.5098V33.2132H27.6387V24.7032C27.6387 21.7198 26.922 20.0365 25.102 20.0365C22.577 20.0365 21.527 21.8515 21.527 24.7032V33.2132H16.1803V15.6465ZM7.01366 32.9848H12.3603V15.4165H7.01366V32.9832V32.9848ZM13.1253 9.68651C13.1354 10.1443 13.0539 10.5995 12.8857 11.0254C12.7175 11.4512 12.4659 11.8392 12.1457 12.1666C11.8255 12.4939 11.4432 12.754 11.0211 12.9315C10.599 13.1091 10.1457 13.2005 9.68783 13.2005C9.22993 13.2005 8.77664 13.1091 8.35457 12.9315C7.9325 12.754 7.55014 12.4939 7.22994 12.1666C6.90974 11.8392 6.65815 11.4512 6.48993 11.0254C6.32171 10.5995 6.24025 10.1443 6.25033 9.68651C6.27011 8.78793 6.64097 7.93283 7.28347 7.30432C7.92597 6.67581 8.78903 6.32387 9.68783 6.32387C10.5866 6.32387 11.4497 6.67581 12.0922 7.30432C12.7347 7.93283 13.1055 8.78793 13.1253 9.68651V9.68651Z" fill="white"/>
</svg>
