<svg width="90" height="90" viewBox="0 0 90 90" fill="none" xmlns="http://www.w3.org/2000/svg">
<path d="M44.9997 82.4438C43.9685 82.4438 43.0047 82.1663 42.1047 81.6863L32.9585 76.2563C31.5897 75.495 32.276 75.2175 32.6885 75.0788C34.5485 74.46 34.8935 74.325 36.8172 73.23C37.0272 73.0913 37.301 73.155 37.511 73.2938L44.5235 77.4938C44.801 77.6288 45.146 77.6288 45.3522 77.4938L72.7985 61.605C73.076 61.47 73.211 61.1925 73.211 60.8475V29.13C73.211 28.7888 73.076 28.5113 72.7985 28.3763L45.3522 12.555C45.0785 12.4163 44.7335 12.4163 44.5235 12.555L17.0697 28.3725C16.796 28.5075 16.6572 28.8563 16.6572 29.1263V60.84C16.6572 61.1138 16.796 61.4625 17.0697 61.5975L24.5697 65.9363C28.6272 67.9913 31.1772 65.58 31.1772 63.18V31.8825C31.1772 31.47 31.5185 31.0538 32.0022 31.0538H35.5122C35.9172 31.0538 36.3372 31.3988 36.3372 31.8825V63.1838C36.3372 68.6175 33.3822 71.7863 28.2222 71.7863C26.6397 71.7863 25.4022 71.7863 21.8922 70.0613L14.6735 65.94C13.7939 65.4287 13.064 64.6955 12.5566 63.8137C12.0493 62.9319 11.7822 61.9324 11.7822 60.915V29.1975C11.7822 27.135 12.881 25.2075 14.6735 24.1763L42.1085 8.28752C42.9991 7.81121 43.9935 7.56201 45.0035 7.56201C46.0135 7.56201 47.0079 7.81121 47.8985 8.28752L75.3372 24.1763C77.1335 25.2038 78.2285 27.135 78.2285 29.1975V60.915C78.2285 62.9738 77.1297 64.9013 75.3372 65.94L47.8985 81.825C46.9947 82.2375 45.9635 82.4438 44.9997 82.4438ZM53.4597 60.6338C41.4222 60.6338 38.9472 55.1288 38.9472 50.4563C38.9472 50.0438 39.2922 49.6275 39.7722 49.6275H43.3497C43.7622 49.6275 44.1035 49.9013 44.1035 50.3175C44.6547 53.9588 46.2335 55.7513 53.531 55.7513C59.306 55.7513 61.7885 54.4388 61.7885 51.345C61.7885 49.5563 61.0947 48.2513 52.0872 47.3588C44.591 46.6088 39.9147 44.9475 39.9147 38.9663C39.9147 33.3975 44.591 30.0938 52.436 30.0938C61.2372 30.0938 65.5722 33.1275 66.1197 39.7238C66.1132 39.9464 66.04 40.1619 65.9097 40.3425C65.771 40.4775 65.5685 40.6163 65.3622 40.6163H61.7885C61.6118 40.6125 61.4415 40.55 61.3043 40.4386C61.1671 40.3273 61.0709 40.1734 61.031 40.0013C60.2022 36.2063 58.0722 34.9763 52.436 34.9763C46.1022 34.9763 45.3447 37.1775 45.3447 38.8275C45.3447 40.8188 46.2335 41.4375 54.7722 42.54C63.2322 43.6388 67.2222 45.2213 67.2222 51.1425C67.1472 57.1988 62.201 60.6338 53.4597 60.6338Z" fill="white"/>
</svg>
