<svg width="90" height="90" viewBox="0 0 90 90" fill="none" xmlns="http://www.w3.org/2000/svg">
<path d="M54.1797 60.8999C52.1717 63.7552 49.9835 66.4795 47.6285 69.0561C53.8985 75.1424 59.7335 77.9924 62.966 76.1211C66.206 74.2536 66.6522 67.7774 64.5185 59.3061C61.3197 60.0186 57.8435 60.5586 54.1797 60.8999ZM49.2672 61.2261C46.4234 61.3439 43.576 61.3439 40.7322 61.2261C42.146 63.0711 43.5747 64.7811 44.9997 66.3411C46.4247 64.7811 47.8497 63.0711 49.2672 61.2261ZM68.1672 31.6236C78.161 34.4886 84.686 39.2511 84.686 44.9999C84.686 50.7486 78.161 55.5111 68.1672 58.3761C70.6797 68.4636 69.821 76.4961 64.8447 79.3686C59.8647 82.2449 52.4772 78.9749 44.9997 71.7561C37.5222 78.9749 30.1347 82.2449 25.1547 79.3686C20.1785 76.4961 19.316 68.4636 21.8322 58.3761C11.8385 55.5111 5.31348 50.7486 5.31348 44.9999C5.31348 39.2511 11.8385 34.4886 21.8322 31.6236C19.3197 21.5361 20.1785 13.5036 25.1547 10.6311C30.1347 7.75488 37.5222 11.0249 44.9997 18.2436C52.4772 11.0249 59.8647 7.75488 64.8447 10.6311C69.821 13.5036 70.6835 21.5361 68.1672 31.6236ZM64.5185 30.6936C66.656 22.2186 66.206 15.7461 62.9697 13.8786C59.7335 12.0074 53.8985 14.8574 47.6322 20.9436C49.9847 23.5215 52.1715 26.2457 54.1797 29.0999C57.8472 29.4374 61.3197 29.9774 64.5185 30.6936ZM25.481 59.3061C23.3435 67.7811 23.7935 74.2536 27.0297 76.1211C30.266 77.9924 36.101 75.1424 42.3672 69.0561C40.0135 66.4794 37.8265 63.7551 35.8197 60.8999C32.3431 60.5891 28.8898 60.0568 25.481 59.3061ZM40.7322 28.7736C43.576 28.6559 46.4234 28.6559 49.2672 28.7736C47.9191 27.0091 46.4953 25.3038 44.9997 23.6624C43.5747 25.2224 42.1497 26.9324 40.7322 28.7774V28.7736ZM35.8197 29.0999C37.8289 26.2444 40.0184 23.5201 42.3747 20.9436C36.101 14.8574 30.2622 12.0074 27.0335 13.8786C23.7935 15.7461 23.3472 22.2224 25.481 30.6936C28.6797 29.9811 32.156 29.4411 35.8197 29.0999ZM52.1022 57.2999C54.7716 53.3825 57.1445 49.271 59.201 44.9999C57.1445 40.7287 54.7716 36.6173 52.1022 32.6999C47.3738 32.3459 42.6256 32.3459 37.8972 32.6999C35.2278 36.6173 32.855 40.7287 30.7985 44.9999C32.855 49.271 35.2278 53.3825 37.8972 57.2999C42.6256 57.6539 47.3738 57.6539 52.1022 57.2999ZM56.9172 56.8086C59.2235 56.5086 61.4172 56.1224 63.4797 55.6686C62.8053 53.5527 62.0396 51.467 61.1847 49.4174C59.8647 51.9377 58.441 54.4023 56.9172 56.8049V56.8086ZM33.0822 33.1874C30.776 33.4874 28.5822 33.8736 26.5197 34.3274C27.1572 36.3374 27.9222 38.4299 28.8147 40.5786C30.1348 38.0583 31.5585 35.5937 33.0822 33.1911V33.1874ZM26.5197 55.6649C28.5822 56.1186 30.776 56.5011 33.0822 56.8049C31.5585 54.4023 30.1348 51.9377 28.8147 49.4174C27.9595 51.4656 27.1938 53.5501 26.5197 55.6649ZM22.8522 54.7461C23.831 51.6186 25.1022 48.3411 26.6397 44.9961C25.1723 41.8295 23.9072 38.573 22.8522 35.2461C14.4447 37.6349 9.06348 41.2611 9.06348 44.9961C9.06348 48.7311 14.4447 52.3574 22.8522 54.7461ZM63.4797 34.3274C61.3094 33.8541 59.12 33.4738 56.9172 33.1874C58.441 35.59 59.8647 38.0546 61.1847 40.5749C62.0772 38.4299 62.8422 36.3374 63.4797 34.3274ZM67.1472 35.2461C66.1685 38.3736 64.8972 41.6511 63.3597 44.9961C64.8972 48.3411 66.1685 51.6186 67.1472 54.7461C75.5547 52.3574 80.936 48.7311 80.936 44.9961C80.936 41.2611 75.5547 37.6349 67.1472 35.2461ZM44.9997 52.0499C44.0739 52.0499 43.1572 51.8675 42.3018 51.5132C41.4465 51.1589 40.6693 50.6396 40.0146 49.985C39.36 49.3303 38.8407 48.5531 38.4864 47.6978C38.1321 46.8425 37.9497 45.9257 37.9497 44.9999C37.9497 44.0741 38.1321 43.1573 38.4864 42.302C38.8407 41.4466 39.36 40.6694 40.0146 40.0148C40.6693 39.3601 41.4465 38.8408 42.3018 38.4865C43.1572 38.1322 44.0739 37.9499 44.9997 37.9499C46.8695 37.9499 48.6627 38.6926 49.9848 40.0148C51.307 41.3369 52.0497 43.1301 52.0497 44.9999C52.0497 46.8697 51.307 48.6629 49.9848 49.985C48.6627 51.3071 46.8695 52.0499 44.9997 52.0499Z" fill="white"/>
</svg>
