<svg width="20" height="20" viewBox="0 0 20 20" fill="none" xmlns="http://www.w3.org/2000/svg">
<path d="M16.667 16.6668H3.33366C2.89163 16.6668 2.46771 16.4912 2.15515 16.1787C1.84259 15.8661 1.66699 15.4422 1.66699 15.0002V4.92766C1.68569 4.49832 1.8695 4.0928 2.18006 3.79575C2.49061 3.4987 2.90391 3.33309 3.33366 3.3335H16.667C17.109 3.3335 17.5329 3.50909 17.8455 3.82165C18.1581 4.13421 18.3337 4.55814 18.3337 5.00016V15.0002C18.3337 15.4422 18.1581 15.8661 17.8455 16.1787C17.5329 16.4912 17.109 16.6668 16.667 16.6668ZM3.33366 6.55683V15.0002H16.667V6.55683L10.0003 11.0002L3.33366 6.55683ZM4.00033 5.00016L10.0003 9.00016L16.0003 5.00016H4.00033Z" fill="white"/>
</svg>
