<svg width="90" height="90" viewBox="0 0 90 90" fill="none" xmlns="http://www.w3.org/2000/svg">
<path d="M45 20.625C19.7663 20.625 0 31.3313 0 45C0 58.6688 19.7663 69.375 45 69.375C70.2337 69.375 90 58.6688 90 45C90 31.3313 70.2337 20.625 45 20.625ZM40.3275 28.125H45.24L43.68 35.625H48.0675C50.85 35.625 52.7175 36.015 53.7825 36.9862C54.8213 37.9462 55.1362 39.5212 54.72 41.6663L52.77 50.625H47.775L49.5713 42.3413C49.7887 41.205 49.7025 40.4138 49.32 39.9975C48.9412 39.5813 48.105 39.375 46.8525 39.375H42.9187L40.545 50.625H35.625L40.3275 28.125ZM18.75 35.625H28.7475C33.5137 35.625 36.4012 38.82 35.2725 43.5863C33.96 49.125 30.45 50.625 23.985 50.625H20.895L19.9163 56.25H14.9475L18.75 35.625ZM58.125 35.625H68.1225C72.8887 35.625 75.7763 38.82 74.6475 43.5863C73.335 49.125 69.8213 50.625 63.36 50.625H60.27L59.2912 56.25H54.3225L58.125 35.625ZM23.0063 39.375L21.5925 46.875H24.7987C27.5737 46.875 30.1538 46.56 30.585 42.42C30.7463 40.8188 30.0788 39.375 26.8725 39.375H23.0063ZM62.3813 39.375L60.9675 46.875H64.1738C66.9488 46.875 69.5287 46.56 69.96 42.42C70.1213 40.8188 69.4575 39.375 66.2475 39.375H62.3813Z" fill="white"/>
</svg>
