<svg width="90" height="90" viewBox="0 0 90 90" fill="none" xmlns="http://www.w3.org/2000/svg">
<g clip-path="url(#clip0_415_2724)">
<path d="M44.6775 0C21.825 0 23.25 9.96 23.25 9.96L23.2762 20.28H45.0788V23.3775H14.625C14.625 23.3775 0 21.7088 0 44.8838C0 68.0588 12.7613 67.2338 12.7613 67.2338H20.3738V56.4825C20.3738 56.4825 19.965 43.6575 32.9362 43.6575H54.5588C54.5588 43.6575 66.7087 43.8525 66.7087 31.8525V12.0075C66.7087 12.0075 68.55 0 44.6738 0H44.6775ZM32.655 6.9375C34.8225 6.9375 36.5775 8.7 36.5775 10.8825C36.5775 13.0613 34.8225 14.8238 32.655 14.8238C30.4838 14.8238 28.7325 13.0613 28.7325 10.8825C28.7325 8.7 30.4838 6.9375 32.655 6.9375Z" fill="white"/>
<path d="M45.326 90.0001C68.171 90.0001 66.746 80.0401 66.746 80.0401L66.7198 69.7201H44.9173V66.6226H75.3785C75.3785 66.6226 90.0035 68.2913 90.0035 45.1163C90.0035 21.9413 77.2385 22.7663 77.2385 22.7663H69.626V33.5176C69.626 33.5176 70.0348 46.3426 57.0635 46.3426H35.4448C35.4448 46.3426 23.2948 46.1476 23.2948 58.1476V77.9926C23.2948 77.9926 21.4498 90.0001 45.326 90.0001ZM57.3485 83.0626C55.1773 83.0626 53.426 81.3001 53.426 79.1176C53.426 76.9388 55.1773 75.1763 57.3485 75.1763C59.516 75.1763 61.271 76.9388 61.271 79.1176C61.271 81.3001 59.516 83.0626 57.3485 83.0626Z" fill="white"/>
</g>
<defs>
<clipPath id="clip0_415_2724">
<rect width="90" height="90" fill="white"/>
</clipPath>
</defs>
</svg>
